<svg width="372" height="41" viewBox="0 0 372 41" fill="none" xmlns="http://www.w3.org/2000/svg">
<path d="M2.98023e-08 17.32C2.98023e-08 15.2933 0.386667 13.3733 1.16 11.56C1.93333 9.74666 3 8.14666 4.36 6.76C5.74667 5.34667 7.34667 4.24 9.16 3.44C10.9733 2.64 12.92 2.24 15 2.24C17.0533 2.24 18.9867 2.64 20.8 3.44C22.6133 4.24 24.2133 5.34667 25.6 6.76C27.0133 8.14666 28.1067 9.74666 28.88 11.56C29.68 13.3733 30.08 15.2933 30.08 17.32C30.08 19.4 29.68 21.3467 28.88 23.16C28.1067 24.9733 27.0133 26.5733 25.6 27.96C24.2133 29.32 22.6133 30.3867 20.8 31.16C18.9867 31.9333 17.0533 32.32 15 32.32C12.92 32.32 10.9733 31.9333 9.16 31.16C7.34667 30.3867 5.74667 29.32 4.36 27.96C3 26.5733 1.93333 24.9733 1.16 23.16C0.386667 21.3467 2.98023e-08 19.4 2.98023e-08 17.32ZM6 17.32C6 18.6267 6.22667 19.8533 6.68 21C7.16 22.12 7.81333 23.12 8.64 24C9.49333 24.8533 10.4667 25.52 11.56 26C12.68 26.48 13.8933 26.72 15.2 26.72C16.4533 26.72 17.6133 26.48 18.68 26C19.7733 25.52 20.72 24.8533 21.52 24C22.32 23.12 22.9467 22.12 23.4 21C23.8533 19.8533 24.08 18.6267 24.08 17.32C24.08 15.9867 23.84 14.7467 23.36 13.6C22.9067 12.4533 22.2667 11.4533 21.44 10.6C20.64 9.72 19.6933 9.04 18.6 8.56C17.5067 8.08 16.32 7.84 15.04 7.84C13.76 7.84 12.5733 8.08 11.48 8.56C10.3867 9.04 9.42667 9.72 8.6 10.6C7.77333 11.4533 7.13333 12.4533 6.68 13.6C6.22667 14.7467 6 15.9867 6 17.32ZM40.0225 14.52L40.4625 17.6L40.3825 17.36C41.0758 16.1867 41.9425 15.28 42.9825 14.64C44.0225 13.9733 45.2758 13.64 46.7425 13.64C47.7025 13.64 48.5425 13.7733 49.2625 14.04C50.0092 14.3067 50.6358 14.7067 51.1425 15.24C51.6492 15.7467 51.9958 16.4133 52.1825 17.24L51.9825 17.28C52.7292 16.1867 53.6225 15.3067 54.6625 14.64C55.7292 13.9733 56.8358 13.64 57.9825 13.64C59.7158 13.64 61.0892 14.1333 62.1025 15.12C63.1425 16.08 63.6758 17.3333 63.7025 18.88V32H58.1425V21.2C58.1158 20.4267 57.9958 19.8 57.7825 19.32C57.5692 18.8133 57.0758 18.5333 56.3025 18.48C55.3958 18.48 54.6225 18.8 53.9825 19.44C53.3692 20.0533 52.9025 20.8533 52.5825 21.84C52.2892 22.8 52.1425 23.8 52.1425 24.84V32H46.5425V21.2C46.5158 20.4267 46.3692 19.8 46.1025 19.32C45.8625 18.8133 45.3558 18.5333 44.5825 18.48C43.7025 18.48 42.9558 18.8 42.3425 19.44C41.7558 20.0533 41.3025 20.84 40.9825 21.8C40.6892 22.76 40.5425 23.7467 40.5425 24.76V32H34.9425V14.52H40.0225ZM80.4338 32.48C79.3938 32.48 78.3671 32.2933 77.3538 31.92C76.3671 31.52 75.5404 30.96 74.8738 30.24L75.0338 28.6V40.4H69.4738V14.12H74.2738L75.0738 17.52L74.6338 16.32C75.5404 15.5467 76.5538 14.9067 77.6738 14.4C78.7938 13.8933 80.0871 13.64 81.5538 13.64C83.1804 13.64 84.6338 14.0267 85.9138 14.8C87.1938 15.5467 88.1938 16.64 88.9138 18.08C89.6604 19.4933 90.0338 21.2 90.0338 23.2C90.0338 25.1733 89.6204 26.8533 88.7938 28.24C87.9671 29.6267 86.8338 30.68 85.3938 31.4C83.9538 32.12 82.3004 32.48 80.4338 32.48ZM79.3138 28.08C80.2204 28.08 81.0471 27.88 81.7938 27.48C82.5671 27.08 83.1804 26.52 83.6338 25.8C84.1138 25.0533 84.3538 24.2133 84.3538 23.28C84.3538 22.2933 84.1404 21.44 83.7138 20.72C83.3138 19.9733 82.7538 19.4 82.0338 19C81.3404 18.5733 80.5671 18.36 79.7138 18.36C78.9671 18.36 78.3004 18.4667 77.7138 18.68C77.1538 18.8667 76.6471 19.16 76.1938 19.56C75.7671 19.9333 75.3938 20.4133 75.0738 21V25.28C75.2871 25.84 75.5938 26.3333 75.9938 26.76C76.3938 27.1867 76.8738 27.52 77.4338 27.76C78.0204 27.9733 78.6471 28.08 79.3138 28.08ZM93.0747 23.04C93.0747 21.2533 93.488 19.6533 94.3147 18.24C95.168 16.8267 96.3547 15.72 97.8747 14.92C99.3947 14.0933 101.141 13.68 103.115 13.68C105.115 13.68 106.848 14.0933 108.315 14.92C109.781 15.72 110.901 16.8267 111.675 18.24C112.475 19.6533 112.875 21.2533 112.875 23.04C112.875 24.8267 112.475 26.44 111.675 27.88C110.901 29.2933 109.781 30.4133 108.315 31.24C106.848 32.0667 105.088 32.48 103.035 32.48C101.115 32.48 99.3947 32.1067 97.8747 31.36C96.3814 30.6133 95.208 29.5333 94.3547 28.12C93.5014 26.7067 93.0747 25.0133 93.0747 23.04ZM98.7147 23.08C98.7147 23.9867 98.9014 24.8133 99.2747 25.56C99.648 26.28 100.155 26.8533 100.795 27.28C101.435 27.7067 102.155 27.92 102.955 27.92C103.835 27.92 104.595 27.7067 105.235 27.28C105.875 26.8533 106.368 26.28 106.715 25.56C107.061 24.8133 107.235 23.9867 107.235 23.08C107.235 22.1467 107.061 21.32 106.715 20.6C106.368 19.88 105.875 19.3067 105.235 18.88C104.595 18.4533 103.835 18.24 102.955 18.24C102.155 18.24 101.435 18.4533 100.795 18.88C100.155 19.3067 99.648 19.88 99.2747 20.6C98.9014 21.32 98.7147 22.1467 98.7147 23.08ZM122.366 14.52L122.806 17.64L122.726 17.36C123.34 16.2667 124.206 15.3867 125.326 14.72C126.446 14.0267 127.82 13.68 129.446 13.68C131.1 13.68 132.473 14.1733 133.566 15.16C134.686 16.12 135.26 17.3733 135.286 18.92V32H129.686V21C129.66 20.2267 129.446 19.6133 129.046 19.16C128.673 18.68 128.033 18.44 127.126 18.44C126.273 18.44 125.526 18.72 124.886 19.28C124.246 19.84 123.753 20.6 123.406 21.56C123.06 22.52 122.886 23.6267 122.886 24.88V32H117.286V14.52H122.366ZM150.076 40.8C148.503 40.8 147.17 40.6133 146.076 40.24C145.01 39.8667 144.103 39.4133 143.356 38.88C142.61 38.3467 141.943 37.84 141.356 37.36L144.636 33.52C145.25 34.08 145.956 34.6133 146.756 35.12C147.583 35.6533 148.663 35.92 149.996 35.92C150.876 35.92 151.69 35.76 152.436 35.44C153.21 35.1467 153.823 34.7067 154.276 34.12C154.756 33.5333 154.996 32.8 154.996 31.92V28.08L155.196 29.08C154.77 29.9867 153.996 30.7867 152.876 31.48C151.756 32.1467 150.29 32.48 148.476 32.48C146.903 32.48 145.436 32.08 144.076 31.28C142.743 30.4533 141.676 29.3467 140.876 27.96C140.076 26.5467 139.676 24.9467 139.676 23.16C139.676 21.32 140.103 19.6933 140.956 18.28C141.81 16.84 142.916 15.7067 144.276 14.88C145.636 14.0533 147.076 13.64 148.596 13.64C150.116 13.64 151.423 13.8667 152.516 14.32C153.636 14.7467 154.476 15.28 155.036 15.92L154.836 16.44L155.436 14.52H160.596V32C160.596 33.7067 160.116 35.2133 159.156 36.52C158.196 37.8533 156.916 38.8933 155.316 39.64C153.743 40.4133 151.996 40.8 150.076 40.8ZM145.316 23C145.316 23.9333 145.53 24.7733 145.956 25.52C146.383 26.2667 146.956 26.8533 147.676 27.28C148.423 27.7067 149.25 27.92 150.156 27.92C150.93 27.92 151.61 27.8267 152.196 27.64C152.81 27.4267 153.343 27.1333 153.796 26.76C154.276 26.36 154.676 25.8667 154.996 25.28V21C154.756 20.4133 154.396 19.92 153.916 19.52C153.436 19.0933 152.876 18.7733 152.236 18.56C151.623 18.32 150.93 18.2 150.156 18.2C149.25 18.2 148.423 18.4133 147.676 18.84C146.956 19.24 146.383 19.8 145.956 20.52C145.53 21.24 145.316 22.0667 145.316 23ZM263.355 2.56H283.195V8.16H276.035V32H270.235V8.16H263.355V2.56ZM291.129 32.84C289.556 32.84 288.236 32.36 287.169 31.4C286.103 30.4133 285.543 29.1467 285.489 27.6V14.52H291.089V25.52C291.143 26.2933 291.343 26.92 291.689 27.4C292.036 27.8533 292.623 28.08 293.449 28.08C294.276 28.08 294.983 27.8 295.569 27.24C296.183 26.68 296.649 25.92 296.969 24.96C297.316 23.9733 297.489 22.8667 297.489 21.64V14.52H303.089V32H298.009L297.569 28.8L297.649 29.16C297.249 29.88 296.743 30.52 296.129 31.08C295.516 31.64 294.783 32.0667 293.929 32.36C293.103 32.68 292.169 32.84 291.129 32.84ZM317.889 40.8C316.315 40.8 314.982 40.6133 313.889 40.24C312.822 39.8667 311.915 39.4133 311.169 38.88C310.422 38.3467 309.755 37.84 309.169 37.36L312.449 33.52C313.062 34.08 313.769 34.6133 314.569 35.12C315.395 35.6533 316.475 35.92 317.809 35.92C318.689 35.92 319.502 35.76 320.249 35.44C321.022 35.1467 321.635 34.7067 322.089 34.12C322.569 33.5333 322.809 32.8 322.809 31.92V28.08L323.009 29.08C322.582 29.9867 321.809 30.7867 320.689 31.48C319.569 32.1467 318.102 32.48 316.289 32.48C314.715 32.48 313.249 32.08 311.889 31.28C310.555 30.4533 309.489 29.3467 308.689 27.96C307.889 26.5467 307.489 24.9467 307.489 23.16C307.489 21.32 307.915 19.6933 308.769 18.28C309.622 16.84 310.729 15.7067 312.089 14.88C313.449 14.0533 314.889 13.64 316.409 13.64C317.929 13.64 319.235 13.8667 320.329 14.32C321.449 14.7467 322.289 15.28 322.849 15.92L322.649 16.44L323.249 14.52H328.409V32C328.409 33.7067 327.929 35.2133 326.969 36.52C326.009 37.8533 324.729 38.8933 323.129 39.64C321.555 40.4133 319.809 40.8 317.889 40.8ZM313.129 23C313.129 23.9333 313.342 24.7733 313.769 25.52C314.195 26.2667 314.769 26.8533 315.489 27.28C316.235 27.7067 317.062 27.92 317.969 27.92C318.742 27.92 319.422 27.8267 320.009 27.64C320.622 27.4267 321.155 27.1333 321.609 26.76C322.089 26.36 322.489 25.8667 322.809 25.28V21C322.569 20.4133 322.209 19.92 321.729 19.52C321.249 19.0933 320.689 18.7733 320.049 18.56C319.435 18.32 318.742 18.2 317.969 18.2C317.062 18.2 316.235 18.4133 315.489 18.84C314.769 19.24 314.195 19.8 313.769 20.52C313.342 21.24 313.129 22.0667 313.129 23ZM341.521 32.48C339.895 32.48 338.415 32.16 337.081 31.52C335.775 30.8533 334.735 29.84 333.961 28.48C333.188 27.12 332.801 25.3867 332.801 23.28C332.801 21.3067 333.201 19.6 334.001 18.16C334.801 16.72 335.855 15.6133 337.161 14.84C338.468 14.04 339.855 13.64 341.321 13.64C343.055 13.64 344.361 13.9333 345.241 14.52C346.148 15.08 346.895 15.7067 347.481 16.4L347.241 17.08L347.761 14.52H352.961V32H347.361V28.2L347.801 29.4C347.748 29.4 347.588 29.56 347.321 29.88C347.055 30.1733 346.655 30.5333 346.121 30.96C345.615 31.36 344.975 31.7067 344.201 32C343.455 32.32 342.561 32.48 341.521 32.48ZM343.121 27.92C343.788 27.92 344.388 27.8267 344.921 27.64C345.455 27.4267 345.921 27.1333 346.321 26.76C346.721 26.36 347.068 25.8667 347.361 25.28V21C347.148 20.4133 346.828 19.92 346.401 19.52C345.975 19.0933 345.468 18.7733 344.881 18.56C344.295 18.32 343.641 18.2 342.921 18.2C342.121 18.2 341.375 18.4133 340.681 18.84C340.015 19.24 339.481 19.8 339.081 20.52C338.681 21.24 338.481 22.0667 338.481 23C338.481 23.9333 338.695 24.7733 339.121 25.52C339.548 26.2667 340.108 26.8533 340.801 27.28C341.521 27.7067 342.295 27.92 343.121 27.92ZM364.412 32.36C362.972 32.36 361.625 32.1067 360.372 31.6C359.145 31.0933 358.105 30.3867 357.252 29.48L359.572 26.4C360.425 27.1733 361.212 27.7333 361.932 28.08C362.678 28.4 363.345 28.56 363.932 28.56C364.385 28.56 364.785 28.52 365.132 28.44C365.505 28.3333 365.798 28.1867 366.012 28C366.225 27.7867 366.332 27.52 366.332 27.2C366.332 26.7467 366.145 26.3867 365.772 26.12C365.425 25.8533 364.972 25.64 364.412 25.48C363.852 25.2933 363.252 25.1067 362.612 24.92C361.012 24.4133 359.852 23.68 359.132 22.72C358.438 21.7333 358.092 20.6667 358.092 19.52C358.092 18.64 358.318 17.76 358.772 16.88C359.252 15.9733 359.998 15.2267 361.012 14.64C362.052 14.0267 363.385 13.72 365.012 13.72C366.478 13.72 367.718 13.8667 368.732 14.16C369.745 14.4533 370.705 14.9333 371.612 15.6L369.492 18.88C368.985 18.48 368.412 18.1467 367.772 17.88C367.158 17.5867 366.585 17.4267 366.052 17.4C365.572 17.3733 365.158 17.4267 364.812 17.56C364.492 17.6933 364.238 17.8667 364.052 18.08C363.865 18.2933 363.772 18.52 363.772 18.76C363.745 19.2667 363.932 19.6667 364.332 19.96C364.758 20.2533 365.292 20.48 365.932 20.64C366.572 20.8 367.198 20.9867 367.812 21.2C368.665 21.4667 369.398 21.8267 370.012 22.28C370.625 22.7333 371.092 23.28 371.412 23.92C371.758 24.5333 371.932 25.28 371.932 26.16C371.932 27.2267 371.652 28.24 371.092 29.2C370.558 30.1333 369.732 30.8933 368.612 31.48C367.518 32.0667 366.118 32.36 364.412 32.36Z" fill="black"/>
<path d="M188.677 25.8C188.677 28.36 188.17 30.5467 187.157 32.36C186.143 34.1733 184.73 35.56 182.917 36.52C181.13 37.5067 179.05 38.04 176.677 38.12V32.48C178.49 32.3733 179.97 31.8133 181.117 30.8C182.263 29.7867 182.837 28.08 182.837 25.68V2.56H188.677V25.8ZM194.012 23.04C194.012 21.2533 194.426 19.6533 195.252 18.24C196.106 16.8267 197.292 15.72 198.812 14.92C200.332 14.0933 202.079 13.68 204.052 13.68C206.052 13.68 207.786 14.0933 209.252 14.92C210.719 15.72 211.839 16.8267 212.612 18.24C213.412 19.6533 213.812 21.2533 213.812 23.04C213.812 24.8267 213.412 26.44 212.612 27.88C211.839 29.2933 210.719 30.4133 209.252 31.24C207.786 32.0667 206.026 32.48 203.972 32.48C202.052 32.48 200.332 32.1067 198.812 31.36C197.319 30.6133 196.146 29.5333 195.292 28.12C194.439 26.7067 194.012 25.0133 194.012 23.04ZM199.652 23.08C199.652 23.9867 199.839 24.8133 200.212 25.56C200.586 26.28 201.092 26.8533 201.732 27.28C202.372 27.7067 203.092 27.92 203.892 27.92C204.772 27.92 205.532 27.7067 206.172 27.28C206.812 26.8533 207.306 26.28 207.652 25.56C207.999 24.8133 208.172 23.9867 208.172 23.08C208.172 22.1467 207.999 21.32 207.652 20.6C207.306 19.88 206.812 19.3067 206.172 18.88C205.532 18.4533 204.772 18.24 203.892 18.24C203.092 18.24 202.372 18.4533 201.732 18.88C201.092 19.3067 200.586 19.88 200.212 20.6C199.839 21.32 199.652 22.1467 199.652 23.08ZM218.224 32V0.439999H223.824V32H218.224ZM228.264 20.12L236.184 32H229.664L224.584 23.32L228.264 20.12ZM222.144 27.16L221.584 21.84L232.144 14.08L235.544 17.08L222.144 27.16ZM240.06 14.52H245.66V32H240.06V14.52ZM239.94 8.32C239.94 7.49333 240.26 6.81333 240.9 6.28C241.566 5.74667 242.273 5.48 243.02 5.48C243.766 5.48 244.446 5.74667 245.06 6.28C245.7 6.81333 246.02 7.49333 246.02 8.32C246.02 9.14667 245.7 9.82667 245.06 10.36C244.446 10.8667 243.766 11.12 243.02 11.12C242.273 11.12 241.566 10.8667 240.9 10.36C240.26 9.82667 239.94 9.14667 239.94 8.32Z" fill="#EB1D36"/>
</svg>
